<svg width="507" height="496" viewBox="0 0 507 496" fill="none" xmlns="http://www.w3.org/2000/svg">
<path d="M16.8188 40H50.0021C51.0918 39.9991 52.171 40.2054 53.1779 40.6071C54.1849 41.0088 55.0998 41.598 55.8703 42.3411C56.6408 43.0841 57.2519 43.9664 57.6684 44.9374C58.085 45.9085 58.2989 46.9492 58.298 48V256H8.52295V48C8.522 46.9492 8.73592 45.9085 9.15249 44.9374C9.56905 43.9664 10.1801 43.0841 10.9506 42.3411C11.7211 41.598 12.636 41.0088 13.643 40.6071C14.6499 40.2054 15.7291 39.9991 16.8188 40Z" fill="url(#paint0_linear)"/>
<path d="M83.1855 96H116.369C117.459 95.9991 118.538 96.2054 119.545 96.6071C120.552 97.0088 121.467 97.598 122.237 98.3411C123.008 99.0842 123.619 99.9664 124.035 100.937C124.452 101.908 124.666 102.949 124.665 104V256H74.8897V104C74.8887 102.949 75.1026 101.908 75.5192 100.937C75.9358 99.9664 76.5468 99.0842 77.3173 98.3411C78.0879 97.598 79.0028 97.0088 80.0097 96.6071C81.0166 96.2054 82.0958 95.9991 83.1855 96Z" fill="url(#paint1_linear)"/>
<path d="M149.552 120H182.735C183.825 119.999 184.904 120.205 185.911 120.607C186.918 121.009 187.833 121.598 188.604 122.341C189.374 123.084 189.985 123.966 190.402 124.937C190.818 125.908 191.032 126.949 191.031 128V256H141.256V128C141.255 126.949 141.469 125.908 141.886 124.937C142.302 123.966 142.913 123.084 143.684 122.341C144.455 121.598 145.369 121.009 146.376 120.607C147.383 120.205 148.462 119.999 149.552 120Z" fill="url(#paint2_linear)"/>
<path d="M215.919 144H249.102C250.192 143.999 251.271 144.205 252.278 144.607C253.285 145.009 254.2 145.598 254.97 146.341C255.741 147.084 256.352 147.966 256.769 148.937C257.185 149.908 257.399 150.949 257.398 152V256H207.623V152C207.622 150.949 207.836 149.908 208.253 148.937C208.669 147.966 209.28 147.084 210.051 146.341C210.821 145.598 211.736 145.009 212.743 144.607C213.75 144.205 214.829 143.999 215.919 144Z" fill="url(#paint3_linear)"/>
<path d="M265.694 248H0.227051V264H265.694V248Z" fill="#7E96B8"/>
<path d="M116.369 22.048V56H99.7773V0H157.848V16H132.264C171.945 69.7001 228.6 109.557 293.742 129.6C304.321 114.392 318.606 101.918 335.346 93.2711C352.086 84.6247 370.77 80.0698 389.76 80.0057C408.75 79.9416 427.466 84.3703 444.269 92.9035C461.071 101.437 475.447 113.814 486.136 128.951C496.824 144.087 503.5 161.521 505.577 179.724C507.654 197.927 505.07 216.344 498.051 233.359C491.031 250.375 479.791 265.471 465.315 277.324C450.839 289.176 433.569 297.424 415.019 301.344V336H431.611V456C431.611 466.609 427.241 476.783 419.462 484.284C411.683 491.786 401.132 496 390.132 496C379.131 496 368.58 491.786 360.801 484.284C353.022 476.783 348.652 466.609 348.652 456V336H365.244V301.344C348.137 297.771 332.093 290.504 318.318 280.088C304.544 269.673 293.399 256.381 285.721 241.212C278.043 226.043 274.032 209.392 273.99 192.513C273.948 175.633 277.877 158.964 285.48 143.76C216.916 121.945 157.563 79.2277 116.369 22.048ZM365.244 456C365.244 462.365 367.866 468.47 372.533 472.971C377.201 477.471 383.531 480 390.132 480C396.732 480 403.062 477.471 407.73 472.971C412.397 468.47 415.019 462.365 415.019 456V352H365.244V456ZM381.836 336H398.427V303.592C395.673 303.784 392.931 304 390.132 304C387.332 304 384.59 303.784 381.836 303.592V336ZM290.582 192C290.492 214.883 298.849 237.05 314.158 254.534C329.468 272.018 350.729 283.678 374.138 287.427C397.547 291.176 421.575 286.77 441.923 274.996C462.271 263.223 477.61 244.85 485.195 223.168C492.78 201.485 492.117 177.907 483.323 156.653C474.529 135.399 458.179 117.856 437.199 107.165C416.219 96.4728 391.978 93.3297 368.814 98.2978C345.651 103.266 325.077 116.021 310.774 134.28C316.763 135.768 322.803 137.064 328.9 138.216C343.19 123.172 362.914 113.979 384.016 112.527C405.118 111.075 425.996 117.473 442.357 130.408C458.717 143.342 469.318 161.829 471.98 182.068C474.642 202.308 469.163 222.762 456.668 239.225C444.174 255.689 425.614 266.911 404.803 270.584C383.993 274.258 362.514 270.105 344.782 258.977C327.05 247.85 314.412 230.595 309.466 210.759C304.52 190.922 307.642 170.013 318.19 152.328C312.599 151.144 307.054 149.829 301.557 148.384C294.349 161.873 290.587 176.826 290.582 192ZM335.636 155.568C326.001 168.892 321.941 185.234 324.267 201.322C326.594 217.41 335.136 232.057 348.183 242.331C361.231 252.604 377.821 257.746 394.632 256.728C411.443 255.709 427.235 248.605 438.846 236.837C450.457 225.069 457.031 209.506 457.251 193.263C457.47 177.021 451.32 161.298 440.032 149.242C428.743 137.186 413.149 129.686 396.371 128.245C379.593 126.803 362.869 131.526 349.548 141.468C363.006 143.146 376.562 143.991 390.132 144V160C371.871 159.959 353.645 158.477 335.636 155.568Z" fill="#159DA7"/>
<path d="M207.623 304H25.1147V320H207.623V304Z" fill="#7E96B8"/>
<path d="M207.623 400H25.1147V416H207.623V400Z" fill="#7E96B8"/>
<path d="M207.623 352H124.665V368H207.623V352Z" fill="#7E96B8"/>
<path d="M108.073 352H25.1147V368H108.073V352Z" fill="#7E96B8"/>
<path d="M207.623 448H124.665V464H207.623V448Z" fill="#7E96B8"/>
<path d="M108.073 448H25.1147V464H108.073V448Z" fill="#7E96B8"/>
<path d="M240.806 304H224.215V320H240.806V304Z" fill="#7E96B8"/>
<path d="M240.806 352H224.215V368H240.806V352Z" fill="#7E96B8"/>
<path d="M240.806 400H224.215V416H240.806V400Z" fill="#7E96B8"/>
<path d="M240.806 448H224.215V464H240.806V448Z" fill="#7E96B8"/>
<defs>
<linearGradient id="paint0_linear" x1="33.4105" y1="40" x2="33.4105" y2="374.368" gradientUnits="userSpaceOnUse">
<stop stop-color="#DB2B56"/>
<stop offset="0.51" stop-color="#DC2C56" stop-opacity="0.502"/>
<stop offset="1" stop-color="#DC2C56" stop-opacity="0.431"/>
</linearGradient>
<linearGradient id="paint1_linear" x1="99.7772" y1="96" x2="99.7772" y2="343.68" gradientUnits="userSpaceOnUse">
<stop stop-color="#DB2B56"/>
<stop offset="0.51" stop-color="#DC2C56" stop-opacity="0.502"/>
<stop offset="1" stop-color="#DC2C56" stop-opacity="0.431"/>
</linearGradient>
<linearGradient id="paint2_linear" x1="166.144" y1="120" x2="166.144" y2="330.528" gradientUnits="userSpaceOnUse">
<stop stop-color="#DB2B56"/>
<stop offset="0.51" stop-color="#DC2C56" stop-opacity="0.502"/>
<stop offset="1" stop-color="#DC2C56" stop-opacity="0.431"/>
</linearGradient>
<linearGradient id="paint3_linear" x1="232.511" y1="144" x2="232.511" y2="317.376" gradientUnits="userSpaceOnUse">
<stop stop-color="#DB2B56"/>
<stop offset="0.51" stop-color="#DC2C56" stop-opacity="0.502"/>
<stop offset="1" stop-color="#DC2C56" stop-opacity="0.431"/>
</linearGradient>
</defs>
</svg>
