<svg width="43" height="54" viewBox="0 0 43 54" fill="none" xmlns="http://www.w3.org/2000/svg">
<path d="M35.7366 28.177C35.7139 23.8456 37.5583 20.5761 41.2915 18.1685C39.2026 14.9932 36.0482 13.2475 31.8801 12.9051C27.936 12.5741 23.6262 15.3483 22.0479 15.3483C20.382 15.3483 16.5601 13.0234 13.5603 13.0234C7.36288 13.1303 0.774902 18.2753 0.774902 28.7435C0.803676 32.0102 1.34439 35.2489 2.37484 38.3268C3.79737 42.6582 8.92929 53.2781 14.2841 53.1034C17.0837 53.0321 19.0612 50.9911 22.7046 50.9911C26.2376 50.9911 28.0701 53.1034 31.1921 53.1034C36.5912 53.0207 41.2353 43.3661 42.5907 39.0232C35.3429 35.3998 35.7366 28.4011 35.7366 28.177ZM29.4483 8.80352C30.4312 7.65355 31.1763 6.29752 31.6355 4.82287C32.0948 3.34822 32.2581 1.78768 32.1149 0.241882C29.2063 0.572314 26.5175 2.04047 24.5717 4.36066C23.5748 5.49202 22.8079 6.82929 22.3186 8.28919C21.8293 9.7491 21.6282 11.3004 21.7277 12.8465C24.6269 13.082 27.2718 11.5007 29.4483 8.80352Z" fill="white"/>
</svg>
