<svg width="51" height="54" viewBox="0 0 51 54" fill="none" xmlns="http://www.w3.org/2000/svg">
<path d="M25.3285 12.1051L30.4604 5.4397C36.528 5.78067 42.4834 7.31478 48.024 9.96415C45.7804 13.5681 41.3246 15.3344 41.3246 15.3344C41.0217 12.1649 38.9318 11.3915 32.2973 11.3915L25.3285 53.1584L18.3186 11.3834C11.7252 11.3834 9.63523 12.1626 9.33018 15.331C9.33018 15.331 4.88085 13.5796 2.63509 9.97909C8.17469 7.32784 14.1293 5.79177 20.1966 5.4489L25.3285 12.1051H25.3198H25.3285ZM25.3285 3.51247C33.4041 3.40019 41.41 5.112 48.8159 8.53453C49.3602 7.5549 49.8263 6.5285 50.2092 5.46613C42.2944 2.09952 33.854 0.345179 25.3285 0.294678C16.8027 0.342081 8.36171 2.09654 0.447754 5.46613C0.84848 6.5232 1.31392 7.55126 1.84107 8.54372C9.24683 5.11975 17.2524 3.40487 25.3285 3.51247Z" fill="white"/>
</svg>
